<?xml version="1.0" standalone="no"?>
<!DOCTYPE svg PUBLIC "-//W3C//DTD SVG 20010904//EN"
 "http://www.w3.org/TR/2001/REC-SVG-20010904/DTD/svg10.dtd">
<svg version="1.0" xmlns="http://www.w3.org/2000/svg"
 width="824.000000pt" height="824.000000pt" viewBox="0 0 824.000000 824.000000"
 preserveAspectRatio="xMidYMid meet">
<metadata>
Created by potrace 1.14, written by Peter Selinger 2001-2017
</metadata>
<g transform="translate(0.000000,824.000000) scale(0.100000,-0.100000)"
fill="#000000" stroke="none">
<path d="M3468 7804 c-3 -2 -36 -6 -74 -9 -69 -4 -161 -14 -199 -21 -20 -4
-75 -12 -132 -19 -18 -2 -36 -6 -40 -8 -5 -3 -28 -8 -53 -12 -72 -11 -307 -73
-435 -116 -119 -40 -132 -45 -190 -70 -16 -7 -32 -13 -35 -14 -14 -5 -49 -19
-80 -33 -19 -9 -37 -17 -40 -17 -15 -2 -233 -114 -277 -142 -29 -18 -53 -31
-53 -28 0 10 -306 -193 -395 -262 -250 -196 -502 -444 -658 -648 -4 -5 -16
-20 -26 -33 -10 -12 -29 -38 -42 -57 -13 -19 -27 -35 -31 -35 -5 0 -8 -4 -8
-10 0 -5 -27 -48 -60 -95 -33 -47 -60 -88 -60 -91 0 -3 -13 -24 -28 -47 -82
-121 -223 -408 -298 -607 -50 -130 -124 -370 -138 -445 -3 -16 -13 -59 -21
-95 -25 -109 -28 -124 -29 -157 0 -18 -3 -33 -6 -33 -3 0 -7 -15 -9 -32 -3
-50 -10 -103 -11 -103 -4 0 -10 -76 -12 -147 -2 -43 -6 -78 -9 -78 -3 0 -5
-107 -4 -237 2 -212 6 -294 21 -413 3 -19 6 -50 8 -67 2 -18 6 -48 10 -65 3
-18 8 -51 12 -73 24 -163 119 -516 174 -650 7 -16 19 -44 26 -62 8 -17 14 -34
14 -38 0 -32 183 -399 263 -530 246 -398 544 -732 911 -1020 21 -16 46 -34 55
-39 9 -5 18 -12 21 -15 18 -23 294 -201 311 -201 5 0 9 -3 9 -7 0 -5 10 -13
23 -18 12 -6 60 -32 107 -57 98 -53 304 -148 333 -154 10 -2 24 -7 31 -12 10
-8 134 -56 146 -57 3 0 25 -7 50 -16 25 -9 65 -22 90 -29 25 -7 56 -16 70 -21
57 -19 269 -67 365 -83 17 -3 46 -8 65 -11 36 -6 84 -12 155 -20 22 -2 58 -7
80 -10 22 -3 69 -7 105 -9 l65 -3 0 674 c0 666 0 673 -20 674 -11 0 -29 2 -40
4 -11 2 -45 7 -75 10 -59 6 -82 9 -145 20 -55 10 -57 10 -80 18 -11 3 -31 8
-45 11 -146 29 -330 97 -515 192 -117 59 -179 95 -183 106 -2 4 -8 8 -14 8 -5
0 -24 11 -42 25 -18 14 -38 25 -44 25 -6 0 -12 3 -14 8 -1 4 -34 32 -73 62
-125 97 -258 225 -350 335 -28 33 -60 71 -72 85 -13 14 -23 28 -23 32 0 3 -6
13 -14 21 -24 24 -124 183 -176 280 -95 178 -184 420 -224 607 -44 202 -61
494 -42 700 4 47 9 97 9 113 1 15 6 27 10 27 5 0 6 4 3 9 -6 9 29 201 41 231
3 8 7 22 9 31 2 9 15 54 30 100 64 204 174 431 290 597 24 35 44 65 44 67 0 3
7 13 15 23 8 9 43 51 77 92 73 89 254 271 318 320 25 19 56 44 69 57 13 13 27
23 32 23 4 0 14 6 21 13 13 12 136 93 201 131 57 34 204 106 216 106 6 0 11 4
11 10 0 5 3 9 8 8 4 0 14 2 22 5 92 40 363 124 425 132 11 1 20 3 20 5 0 1 11
3 25 5 14 2 36 6 50 9 14 2 46 7 73 10 26 3 66 8 90 11 23 3 86 7 140 9 84 3
97 1 98 -13 0 -9 2 -353 2 -766 1 -412 5 -754 9 -760 4 -7 255 -9 725 -8 395
0 721 2 724 2 3 1 6 583 6 1294 l0 1294 -31 13 c-17 7 -49 21 -71 30 -118 52
-477 159 -620 185 -16 3 -55 10 -85 16 -51 9 -79 14 -138 24 -13 2 -56 7 -95
10 -40 4 -83 9 -97 12 -33 7 -546 14 -552 7z"/>
<path d="M2700 4750 c-5 -3 -8 -291 -7 -640 l2 -635 1625 0 c1090 0 1625 -3
1625 -10 0 -20 -50 -170 -58 -176 -5 -3 -8 -9 -7 -13 6 -18 -141 -331 -173
-371 -4 -5 -27 -39 -50 -75 -22 -36 -44 -67 -47 -70 -3 -3 -24 -30 -45 -60
-52 -70 -102 -130 -177 -209 -51 -53 -62 -70 -65 -105 -2 -22 -5 -46 -7 -52
-2 -6 0 -17 4 -24 5 -7 4 -24 0 -36 -5 -13 -5 -26 -1 -28 5 -3 5 -24 1 -47 -4
-23 -4 -54 0 -70 5 -15 6 -29 4 -31 -3 -4 -4 -23 -4 -115 l0 -51 673 -1 674
-1 46 65 c26 36 47 69 47 75 0 5 6 13 13 17 8 4 27 32 43 60 16 29 32 53 37
53 4 0 7 4 7 9 0 5 19 42 43 83 24 40 58 102 76 138 18 36 36 72 41 80 45 81
191 451 206 524 2 11 10 40 19 66 9 26 18 56 20 68 7 30 10 46 30 127 9 39 19
84 21 100 3 17 7 41 11 55 9 39 21 120 28 195 2 28 7 61 9 75 29 135 24 636
-9 840 -1 8 -5 42 -9 75 -11 90 -15 107 -21 114 -8 7 -4613 8 -4625 1z"/>
<path d="M3719 3312 l-25 -3 0 -1444 0 -1445 2273 0 2273 0 -2 672 -3 673
-1539 0 -1539 0 0 773 0 772 -21 1 c-77 2 -1396 3 -1417 1z"/>
</g>
</svg>
