<svg width="140" height="336" viewBox="0 0 140 336" fill="none" xmlns="http://www.w3.org/2000/svg">
<path d="M65.5738 31.7258C60.6247 39.4566 55.8891 47.6434 51.5533 55.7258C46.5285 65.0923 46.0561 72.4191 44.531 81.7258C43.1991 89.8381 44.6848 101.399 45.5062 110.726C45.7666 113.652 47.631 118.466 47.4959 122.726C47.4926 122.867 46.5589 123.599 46.495 123.726C46.4312 123.853 46.6077 123.637 46.495 123.726C46.3824 123.815 46.6356 123.691 46.495 123.726C46.3544 123.76 45.6377 123.752 45.495 123.726C42.3061 123.142 40.0921 122.524 37.4976 120.726C30.4319 115.829 14.6144 104.5 5.50701 109.726C-0.250879 113.04 1.27952 124.261 3.48988 129.726C7.37228 139.348 10.6366 149.064 14.465 158.726C20.4701 173.855 29.1464 187.791 37.4282 201.726" stroke="#0077C0"  stroke-width="2"/>
<path d="M37.1553 201.706C41.5378 210.206 46.5268 223.029 57.133 227.706" stroke="#0077C0" stroke-width="2"/>
<path d="M57.3432 228.786L61.3415 230.786C61.696 230.959 62.1877 230.566 62.3415 230.786C64.7677 234.222 63.1951 237.599 63.3329 240.786C63.933 255.031 62.9452 270.171 58.2961 283.786C57.6319 285.731 57.4138 287.027 57.2927 287.786L56.2901 290.786C56.2511 291.027 56.3408 291.613 56.2892 291.786C56.2376 291.959 56.3379 291.733 56.2892 291.786C55.1439 292.938 54.8991 294.108 55.2858 295.786C55.3015 295.856 55.3473 296.641 55.2849 296.786C55.2226 296.931 54.4058 296.612 54.2849 296.786C53.9231 297.299 53.5918 297.867 53.2832 298.786C49.9958 308.529 47.8447 315.182 47.267 317.786C45.9771 323.58 45.1013 328.142 44.2558 330.786C43.6519 332.684 43.9387 336.203 47.2533 333.786C47.5073 333.605 48.1554 334.104 48.2533 333.786C49.0585 331.249 49.9814 326.473 51.2644 320.786C53.3199 311.696 57.8598 297.825 64.3004 278.786C65.7696 274.451 66.0173 269.341 66.3123 264.786C66.943 255.037 67.4028 245.675 66.3372 235.786C66.1513 234.088 67.0147 232.878 68.3406 231.786C84.0409 218.88 96.917 203.012 112.377 189.786C130.9 173.943 139.585 152.58 140.429 128.786C140.737 120.169 141.938 111.303 143.451 102.786C143.966 99.8593 143.476 93.9637 141.461 91.7861C138.241 88.3198 132.89 90.8493 130.459 93.7861C122.159 103.805 117.157 112.743 105.437 118.786C104.674 119.179 104.15 118.592 104.438 117.786C107.879 108.157 110.551 98.955 111.463 88.7861C112.892 73.0132 113.072 56.56 107.503 41.7861C104.011 32.5228 99.5339 23.8296 95.5265 14.7861" stroke="#0077C0" stroke-width="2"/>
<path d="M96.6562 14.3918C95.029 10.2901 90.9737 -0.539013 85.6673 1.3918C82.4552 2.5623 79.2828 7.39053 77.6596 10.3918C73.7981 17.5648 68.7647 24.2688 64.6416 31.3918" stroke="#0077C0" stroke-width="2"/>
<path d="M97.1205 15.5125C96.3551 15.9323 95.7845 15.912 95.1205 15.5125C94.8747 15.363 94.2374 14.8721 94.1213 14.5125C92.9869 10.9373 88.7034 0.408265 84.1282 6.51247C79.563 12.6167 68.2563 32.8273 65.1059 32.5125" stroke="#0077C0" stroke-width="2"/>
<path d="M57.1409 228.705C56.374 227.754 54.689 226.214 52.1452 223.705C49.9292 221.53 48.1184 218.238 46.1529 214.705C43.7845 210.454 40.3247 207.156 38.1632 202.705C38.0735 202.521 38.2874 201.811 38.164 201.705C38.0406 201.6 38.2668 201.685 38.164 201.705C37.9475 201.739 37.2947 202.346 37.1632 202.705" stroke="#0077C0" stroke-width="2"/>
<path d="M78.4452 155.019C80.3401 137.185 85.0209 121.284 83.4889 104.019C82.9653 98.0379 83.106 92.1708 82.5043 86.0194C82.4898 85.8583 82.598 85.1395 82.5051 85.0194C82.4122 84.8992 82.642 85.0539 82.5051 85.0194C81.572 84.786 81.3415 85.5657 81.5034 87.0194C81.9308 90.9703 80.6024 97.1482 80.4906 102.019C80.1954 115.143 78.5243 127.916 76.4572 141.019C75.8731 144.727 75.7833 148.858 75.446 154.019C74.9037 162.341 73.233 170.884 71.4246 179.019C70.8153 181.75 71.1839 184.119 70.4178 187.019C69.6975 189.76 69.4721 192.152 69.4109 195.019C69.3905 196 69.6835 198.48 70.4101 196.019C71.7748 191.398 72.8635 184.341 74.4255 178.019C76.2462 170.631 77.6359 162.601 78.4452 155.019Z" stroke="#0077C0" stroke-width="2"/>
<path d="M123.209 145.25L122.206 148.25C122.171 148.326 122.217 148.169 122.206 148.25C122.196 148.331 122.19 149.18 122.205 149.25C122.221 149.32 122.167 149.205 122.205 149.25C122.244 149.295 122.151 149.239 122.205 149.25C122.499 149.309 122.956 149.413 123.205 149.25C124.801 148.183 125.965 146.558 126.209 145.25C127.119 140.35 128.831 135.581 131.221 131.25C131.882 130.033 131.026 129.778 130.221 131.25C128.061 135.175 126.032 139.154 124.21 143.25C123.967 143.793 124.184 144.654 124.209 145.25C124.221 145.498 123.362 144.91 123.209 145.25Z" stroke="#0077C0" stroke-width="2"/>
<path d="M26.0654 140.077C25.4929 157.409 36.6447 173.374 47.026 186.077C49.5073 189.109 64.1661 207.448 65.008 207.077C65.0544 207.057 64.9861 207.132 65.008 207.077C65.0298 207.021 65.0146 207.158 65.008 207.077C65.0013 206.995 65.0428 206.17 65.0088 206.077C64.9749 205.983 65.0641 206.166 65.0088 206.077C59.1298 196.597 55.0768 190.701 53.0242 188.077C42.0156 174.008 30.4231 157.289 28.0654 140.077C27.8034 138.118 26.1173 138.641 26.0654 140.077Z" stroke="#0077C0" stroke-width="2"/>
<path d="M117.239 151.317C106.129 169.914 91.934 186.509 75.1973 200.317C74.7612 200.676 74.9352 201.052 75.1964 201.317C75.2883 201.408 76.0452 201.323 76.1964 201.317C76.3476 201.312 76.0587 201.416 76.1964 201.317C87.6126 193.095 97.8592 183.601 106.221 172.317C109.483 167.924 119.669 154.067 119.239 151.317C119.006 149.816 118.239 149.644 117.239 151.317Z" stroke="#0077C0" stroke-width="2"/>
<path d="M98.4427 196.618C98.5475 196.747 99.2591 196.602 99.4427 196.618C99.5527 196.631 99.3107 196.706 99.4427 196.618C99.5746 196.53 99.3389 196.774 99.4427 196.618C100.642 194.825 100.324 194.212 98.4435 195.618C98.2967 195.729 98.4705 195.459 98.4435 195.618C98.4165 195.777 98.3349 196.498 98.4427 196.618Z" stroke="#0077C0" stroke-width="2"/>
<path d="M63.7239 215.566C62.1968 213.719 60.0374 212.292 57.7273 211.566C57.2414 211.418 57.3606 212.052 57.7265 212.566C58.0748 213.063 64.1997 223.018 64.7213 218.566C64.7886 218.009 64.859 217.078 64.723 216.566C64.5871 216.055 64.0404 215.947 63.7239 215.566Z" stroke="#0077C0" stroke-width="2"/>
<path d="M96.6701 14.3848C95.9047 14.7982 95.3341 14.7782 94.6701 14.3848C94.4243 14.2375 93.7861 14.7389 93.6701 14.3848C92.5356 10.8637 88.2529 -0.62706 83.6778 5.38477C79.1127 11.3966 67.8059 31.6949 64.6555 31.3848C68.7786 24.2626 73.8121 17.557 77.6735 10.3848C79.2967 7.38386 82.4691 2.55513 85.6812 1.38477C90.9877 -0.545814 95.0429 10.2835 96.6701 14.3848Z" fill="#0077C0"  />
<path d="M96.178 14.9857C100.187 24.0335 104.662 32.718 108.155 41.9857C113.725 56.7666 113.544 73.2053 112.115 88.9857C111.202 99.1594 108.532 108.352 105.09 117.986C104.801 118.792 105.326 118.379 106.09 117.986C117.814 111.939 122.807 104.01 131.11 93.9857C133.543 91.0475 138.892 88.5178 142.112 91.9857C144.129 94.1643 144.617 100.057 144.103 102.986C142.589 111.507 141.389 120.364 141.08 128.986C140.237 152.791 131.559 174.135 113.028 189.986C97.5627 203.218 84.6984 219.074 68.9922 231.986C67.6658 233.078 66.8028 234.287 66.9888 235.986C68.0548 245.88 67.5949 255.232 66.9639 264.986C66.6688 269.543 65.4217 274.648 63.9519 278.986C57.5089 298.034 53.9723 311.891 51.916 320.986C50.6324 326.675 49.7103 331.447 48.9048 333.986C48.8069 334.303 48.159 333.804 47.9048 333.986C44.589 336.404 44.3033 332.884 44.9074 330.986C45.7532 328.341 46.6282 323.782 47.9185 317.986C48.4965 315.381 50.6462 308.733 53.9348 298.986C54.2435 298.066 54.5746 297.499 54.9365 296.986C55.0574 296.811 55.8741 297.131 55.9365 296.986C55.9989 296.84 55.9531 296.056 55.9374 295.986C55.5505 294.307 55.7951 293.138 56.9408 291.986C56.9895 291.932 56.8892 292.159 56.9408 291.986C56.9924 291.813 56.9027 291.226 56.9417 290.986L57.9442 287.986C58.0654 287.226 58.2832 285.931 58.9477 283.986C63.5986 270.364 64.5848 255.237 63.9845 240.986C63.8466 237.798 65.4202 234.424 62.993 230.986C62.8393 230.766 62.3477 231.159 61.993 230.986L57.9948 228.986C57.2123 228.033 54.5952 225.497 51.9999 222.986C49.739 220.807 48.0121 218.523 46.0067 214.986C43.5903 210.728 40.2232 206.443 38.0179 201.986C37.9264 201.801 38.1438 202.091 38.0179 201.986C37.892 201.88 38.1228 201.965 38.0179 201.986C37.7969 202.019 37.1521 201.626 37.0179 201.986C28.7957 187.994 20.0165 174.176 14.0547 158.986C10.2539 149.285 6.93397 139.646 3.07954 129.986C0.885111 124.499 -0.619902 113.314 5.09667 109.986C14.1387 104.739 29.0732 115.069 36.0881 119.986C38.6639 121.791 41.9187 123.399 45.0847 123.986C45.2263 124.012 44.9451 124.02 45.0847 123.986C45.2243 123.951 45.9729 124.075 46.0847 123.986C46.1965 123.896 46.0213 124.113 46.0847 123.986C46.1481 123.858 46.0823 123.128 46.0855 122.986C46.2197 118.708 45.3552 112.924 45.0967 109.986C44.2813 100.621 42.7991 89.1307 44.1215 80.9857C45.6358 71.6414 46.155 64.3899 51.1438 54.9857C55.4486 46.8706 60.2498 39.7476 65.1635 31.9857C68.3063 32.2955 78.6317 11.992 83.1857 5.98569C87.7498 -0.0206342 93.0472 10.4678 94.1789 13.9857C94.2947 14.3395 93.9329 14.8386 94.178 14.9857C94.8405 15.3788 95.4145 15.3988 96.178 14.9857ZM79.0581 154.986C81.0014 137.167 85.6745 120.235 84.1027 102.986C83.5655 97.0093 83.7354 91.1319 83.1181 84.9857C83.1033 84.8247 83.2134 85.1057 83.1181 84.9857C83.0228 84.8656 83.2585 85.0202 83.1181 84.9857C82.161 84.7525 81.9511 84.5332 82.1172 85.9857C82.5557 89.9332 81.2182 97.1186 81.1035 101.986C80.8011 115.098 79.1909 126.894 77.071 139.986C76.472 143.69 75.4048 148.829 75.059 153.986C74.5029 162.301 73.8931 169.857 72.0384 177.986C71.4135 180.714 71.8173 183.087 71.0316 185.986C70.2928 188.724 70.0866 192.121 70.0239 194.986C70.003 195.965 70.2787 197.444 71.0239 194.986C72.4236 190.368 73.4373 183.302 75.0393 176.986C76.9067 169.603 78.2282 162.561 79.0581 154.986ZM124.066 145.986L123.063 148.986C123.027 149.063 123.074 148.903 123.063 148.986C123.052 149.068 123.046 149.915 123.062 149.986C123.079 150.057 123.022 149.94 123.062 149.986C123.103 150.031 123.006 149.974 123.062 149.986C123.37 150.046 123.801 150.152 124.062 149.986C125.737 148.9 126.81 147.318 127.066 145.986C128.021 140.995 129.57 136.396 132.078 131.986C132.772 130.746 131.923 129.487 131.079 130.986C128.813 134.983 126.98 138.815 125.068 142.986C124.814 143.539 124.04 144.379 124.067 144.986C124.08 145.239 124.227 145.639 124.066 145.986ZM26.0701 140.986C25.5031 158.235 36.7497 173.343 47.0316 185.986C49.4892 189.004 63.1798 207.355 64.0136 206.986C64.0596 206.966 63.992 207.041 64.0136 206.986C64.0352 206.931 64.0202 207.067 64.0136 206.986C64.007 206.904 64.0481 206.079 64.0145 205.986C63.9808 205.892 64.0692 206.074 64.0145 205.986C58.1917 196.551 54.0627 190.597 52.0299 187.986C41.1265 173.984 29.4052 158.115 27.0701 140.986C26.8107 139.037 26.1216 139.557 26.0701 140.986ZM117.061 151.986C105.965 170.641 91.7333 187.134 75.0187 200.986C74.5833 201.345 74.757 201.719 75.0179 201.986C75.1096 202.077 75.8669 201.991 76.0179 201.986C76.1689 201.98 75.8803 202.085 76.0179 201.986C87.4189 193.737 97.6926 183.305 106.044 171.986C109.301 167.578 119.49 154.744 119.061 151.986C118.828 150.48 118.06 150.307 117.061 151.986ZM99.0222 196.986C99.1024 197.099 98.8816 196.972 99.0222 196.986C99.1064 196.998 98.9211 197.063 99.0222 196.986C99.1232 196.908 99.9435 196.123 100.023 195.986C100.942 194.413 100.463 194.753 99.023 195.986C98.9105 196.083 99.0437 195.846 99.023 195.986C99.0023 196.125 98.9397 196.881 99.0222 196.986ZM64.0067 214.986C62.5555 213.24 60.2045 212.672 58.0093 211.986C57.5475 211.846 57.6616 211.499 58.0093 211.986C58.3403 212.455 64.5085 222.193 65.0042 217.986C65.0681 217.459 64.1342 217.469 64.005 216.986C63.8759 216.502 64.3075 215.345 64.0067 214.986Z" fill="#0077C0" opacity="0.85"/>
<path d="M57.1409 228.705C46.5347 223.955 41.5455 211.338 37.1632 202.705C37.2947 202.346 37.9475 201.739 38.164 201.705C38.2668 201.685 38.0406 201.6 38.164 201.705C38.2874 201.811 38.0735 202.521 38.1632 202.705C40.3247 207.156 43.7845 210.454 46.1529 214.705C48.1184 218.238 49.9292 221.53 52.1452 223.705C54.689 226.214 56.374 227.754 57.1409 228.705Z" fill="#0077C0" opacity="0.65"/>
<path d="M84.7908 102.253C86.3228 119.517 81.642 135.419 79.7471 153.253C78.9378 160.835 77.5481 168.865 75.7274 176.253C74.1654 182.574 73.0767 189.632 71.712 194.253C70.9854 196.714 70.6924 194.233 70.7128 193.253C70.774 190.386 70.9994 187.994 71.7197 185.253C72.4858 182.352 72.1172 179.984 72.7265 177.253C74.5348 169.118 76.2056 160.575 76.7479 152.253C77.0852 147.092 77.175 142.961 77.7591 139.253C79.8262 126.15 81.4973 113.376 81.7925 100.253C81.9043 95.3818 83.2327 89.204 82.8053 85.253C82.6434 83.7993 82.8739 83.0196 83.807 83.253C83.9439 83.2876 83.7141 83.1329 83.807 83.253C83.8999 83.3731 83.7917 84.0919 83.8062 84.253C84.4079 90.4045 84.2672 96.2716 84.7908 102.253Z" fill="white" opacity="0.65"/>
<path d="M125.034 144.839C125.009 144.243 124.792 143.382 125.035 142.839C126.857 138.743 128.886 134.764 131.046 130.839C131.851 129.367 132.707 129.622 132.046 130.839C129.656 135.17 127.944 139.938 127.034 144.839C126.79 146.147 125.626 147.772 124.03 148.839C123.781 149.002 123.324 148.897 123.03 148.839C122.976 148.828 123.069 148.883 123.03 148.839C122.992 148.794 123.046 148.908 123.03 148.839C123.015 148.769 123.021 147.919 123.031 147.839C123.042 147.758 122.997 147.914 123.031 147.839L124.034 144.839C124.187 144.498 125.046 145.087 125.034 144.839Z" fill="#0077C0" opacity="0.65"/>
<path d="M25.9661 140.125C26.0167 138.689 27.7109 138.167 27.9661 140.125C30.2629 157.337 41.1989 174.057 51.925 188.125C53.9248 190.75 58.1814 196.646 63.9095 206.125C63.9634 206.215 63.8765 206.032 63.9095 206.125C63.9426 206.219 63.9022 207.044 63.9087 207.125C63.9151 207.207 63.9299 207.07 63.9087 207.125C63.8874 207.181 63.954 207.106 63.9087 207.125C63.0884 207.497 49.3443 189.158 46.9267 186.125C36.8119 173.422 25.4079 157.458 25.9661 140.125Z" fill="white" opacity="0.65"/>
<path d="M117.56 152.275C118.56 150.601 119.326 150.774 119.56 152.275C119.99 155.025 109.803 168.882 106.542 173.275C98.1795 184.559 87.9329 194.053 76.5167 202.275C76.379 202.374 76.6679 202.269 76.5167 202.275C76.3655 202.28 75.6086 202.366 75.5167 202.275C75.2555 202.009 75.0816 201.634 75.5176 201.275C92.2543 187.467 106.45 170.872 117.56 152.275Z" fill="white" opacity="0.65"/>
<path d="M102.762 195.7C104.643 194.294 104.96 194.907 103.761 196.7C103.657 196.856 103.893 196.612 103.761 196.7C103.629 196.788 103.871 196.713 103.761 196.7C103.577 196.684 102.866 196.829 102.761 196.7C102.653 196.58 102.735 195.859 102.762 195.7C102.789 195.541 102.615 195.811 102.762 195.7Z" fill="#0077C0" opacity="0.65"/>
<path d="M68.0142 215.662C68.3307 216.043 68.8774 216.151 69.0133 216.662C69.1492 217.174 69.0788 218.105 69.0116 218.662C68.49 223.114 62.365 213.159 62.0168 212.662C61.6509 212.148 61.5317 211.514 62.0176 211.662C64.3276 212.388 66.4871 213.815 68.0142 215.662Z" fill="#0077C0" opacity="0.65" />
</svg>
