<svg width="45" height="51" viewBox="0 0 45 51" fill="none" xmlns="http://www.w3.org/2000/svg">
<path d="M42.5 16L27.5 2.85002C26.1249 1.62013 24.3448 0.940186 22.5 0.940186C20.6552 0.940186 18.875 1.62013 17.5 2.85002L2.49999 16C1.70591 16.7102 1.07224 17.5814 0.641173 18.5556C0.210102 19.5298 -0.00847554 20.5847 -7.15534e-06 21.65V43.5C-7.15534e-06 45.4891 0.790169 47.3968 2.19669 48.8033C3.60322 50.2098 5.51087 51 7.49999 51H37.5C39.4891 51 41.3968 50.2098 42.8033 48.8033C44.2098 47.3968 45 45.4891 45 43.5V21.625C45.0049 20.5639 44.7846 19.5139 44.3537 18.5442C43.9227 17.5746 43.2909 16.7074 42.5 16V16ZM27.5 46H17.5V33.5C17.5 32.837 17.7634 32.2011 18.2322 31.7323C18.7011 31.2634 19.337 31 20 31H25C25.663 31 26.2989 31.2634 26.7678 31.7323C27.2366 32.2011 27.5 32.837 27.5 33.5V46ZM40 43.5C40 44.1631 39.7366 44.7989 39.2678 45.2678C38.7989 45.7366 38.163 46 37.5 46H32.5V33.5C32.5 31.5109 31.7098 29.6032 30.3033 28.1967C28.8968 26.7902 26.9891 26 25 26H20C18.0109 26 16.1032 26.7902 14.6967 28.1967C13.2902 29.6032 12.5 31.5109 12.5 33.5V46H7.49999C6.83695 46 6.20107 45.7366 5.73223 45.2678C5.26339 44.7989 4.99999 44.1631 4.99999 43.5V21.625C5.00044 21.2701 5.07648 20.9193 5.22304 20.596C5.3696 20.2727 5.58332 19.9843 5.84999 19.75L20.85 6.62502C21.3062 6.22422 21.8927 6.00318 22.5 6.00318C23.1073 6.00318 23.6938 6.22422 24.15 6.62502L39.15 19.75C39.4167 19.9843 39.6304 20.2727 39.7769 20.596C39.9235 20.9193 39.9995 21.2701 40 21.625V43.5Z" fill="#0077C0"/>
</svg>
