<svg width="51" height="50" viewBox="0 0 51 50" fill="none" xmlns="http://www.w3.org/2000/svg">
<path d="M48.75 20.2C48.0475 19.3566 47.1685 18.6777 46.175 18.2112C45.1814 17.7446 44.0976 17.5019 43 17.5H31.6L33 13.925C33.5823 12.3597 33.7763 10.6765 33.5652 9.01979C33.3541 7.36308 32.7442 5.78231 31.788 4.41306C30.8317 3.04382 29.5576 1.92698 28.0749 1.15835C26.5921 0.389714 24.9451 -0.00777064 23.275 -1.05922e-05C22.7941 0.000992812 22.3237 0.140678 21.9202 0.402296C21.5167 0.663915 21.1972 1.03636 21 1.47499L13.875 17.5H8C6.01088 17.5 4.10322 18.2902 2.6967 19.6967C1.29018 21.1032 0.5 23.0109 0.5 25V42.5C0.5 44.4891 1.29018 46.3968 2.6967 47.8033C4.10322 49.2098 6.01088 50 8 50H39.825C41.5795 49.9994 43.2783 49.3837 44.6258 48.26C45.9733 47.1364 46.8842 45.5759 47.2 43.85L50.375 26.35C50.5714 25.2684 50.5276 24.1569 50.2468 23.0942C49.966 22.0314 49.455 21.0434 48.75 20.2ZM13 45H8C7.33696 45 6.70107 44.7366 6.23223 44.2678C5.76339 43.7989 5.5 43.163 5.5 42.5V25C5.5 24.3369 5.76339 23.7011 6.23223 23.2322C6.70107 22.7634 7.33696 22.5 8 22.5H13V45ZM45.5 25.45L42.325 42.95C42.2185 43.5324 41.9088 44.0581 41.451 44.4335C40.9932 44.8089 40.417 45.0096 39.825 45H18V20.525L24.8 5.22499C25.5 5.42905 26.15 5.77601 26.7091 6.24395C27.2683 6.71189 27.7243 7.29066 28.0485 7.94372C28.3727 8.59679 28.558 9.30997 28.5926 10.0382C28.6273 10.7665 28.5107 11.4941 28.25 12.175L26.925 15.75C26.6427 16.5056 26.5474 17.3184 26.6472 18.1188C26.747 18.9193 27.039 19.6837 27.4983 20.3468C27.9576 21.01 28.5705 21.5522 29.2848 21.9271C29.999 22.302 30.7933 22.4986 31.6 22.5H43C43.3673 22.4994 43.7302 22.5797 44.0629 22.7353C44.3956 22.8908 44.6899 23.1178 44.925 23.4C45.1658 23.6783 45.3422 24.0064 45.4416 24.3607C45.541 24.7151 45.561 25.087 45.5 25.45Z" fill="#0077C0"/>
</svg>
