<svg width="41" height="50" viewBox="0 0 41 50" fill="none" xmlns="http://www.w3.org/2000/svg">
<path d="M39.575 4.12501C39.2846 3.89006 38.9452 3.72319 38.5818 3.63667C38.2183 3.55014 37.8402 3.54616 37.475 3.62501C34.8036 4.18487 32.0459 4.192 29.3716 3.64597C26.6973 3.09993 24.1631 2.01229 21.925 0.450009C21.5065 0.15969 21.0093 0.00411987 20.5 0.00411987C19.9907 0.00411987 19.4935 0.15969 19.075 0.450009C16.8369 2.01229 14.3027 3.09993 11.6284 3.64597C8.95416 4.192 6.19642 4.18487 3.52501 3.62501C3.15986 3.54616 2.78168 3.55014 2.41827 3.63667C2.05485 3.72319 1.71545 3.89006 1.42501 4.12501C1.13496 4.3603 0.901317 4.6576 0.741245 4.99505C0.581174 5.3325 0.498745 5.70152 0.500014 6.07501V24.7C0.497792 28.2844 1.35195 31.8174 2.99135 35.0049C4.63076 38.1924 7.00796 40.9421 9.92501 43.025L19.05 49.525C19.4734 49.8265 19.9803 49.9885 20.5 49.9885C21.0198 49.9885 21.5266 49.8265 21.95 49.525L31.075 43.025C33.9921 40.9421 36.3693 38.1924 38.0087 35.0049C39.6481 31.8174 40.5022 28.2844 40.5 24.7V6.07501C40.5013 5.70152 40.4189 5.3325 40.2588 4.99505C40.0987 4.6576 39.8651 4.3603 39.575 4.12501ZM35.5 24.7C35.5019 27.4869 34.8382 30.234 33.5641 32.7126C32.2901 35.1912 30.4424 37.3296 28.175 38.95L20.5 44.425L12.825 38.95C10.5576 37.3296 8.70998 35.1912 7.43589 32.7126C6.1618 30.234 5.4981 27.4869 5.50001 24.7V8.95001C10.7411 9.39859 15.9901 8.18257 20.5 5.47501C25.0099 8.18257 30.2589 9.39859 35.5 8.95001V24.7Z" fill="#0077C0"/>
</svg>
