<svg width="148" height="153" viewBox="0 0 148 153" fill="none" xmlns="http://www.w3.org/2000/svg">
<path d="M28.9981 130.991C40.5494 140.34 54.1512 135.423 62.9981 124.991C67.9946 119.092 70.9727 134.305 71.9981 135.991C82.7954 153.616 102.869 150.67 113.998 134.991C122.001 123.725 118.426 114.767 114.998 102.991C114.254 100.453 114.254 97.3517 116.998 96.9906C147.238 92.9379 152.216 61.4751 129.998 43.9906C122.391 38.0052 113.447 35.7868 102.998 36.9906C85.0831 39.057 93.4571 27.7912 87.9981 17.9906C84.1879 11.1392 75.3571 6.48523 67.9981 4.99057C55.7934 2.52286 45.0193 4.90533 35.9981 12.9906C33.1329 15.5586 32.1194 19.6903 29.9981 22.9906C25.2831 30.3535 18.7687 36.4502 12.9981 42.9906C7.2476 49.521 4.16368 54.7649 4.9981 62.9906C5.71189 70.0025 13.781 74.9818 16.9981 80.9906C20.1649 86.9291 19.3801 91.9154 18.9981 99.9906C18.3346 113.703 17.3865 121.601 28.9981 130.991Z" stroke="white" stroke-width="8" opacity="0.65"/>
<path d="M54.9957 97.9829C62.1971 103.519 70.618 106.133 79.9957 104.983C93.4833 103.338 102.034 88.8949 100.996 76.9829C99.8477 63.7054 91.1638 53.9834 77.9957 50.9829C54.7644 45.6998 34.8493 82.5124 54.9957 97.9829Z" stroke="#FFFFF" stroke-width="2"/>
<path d="M28.9981 130.991C17.3865 121.601 18.3346 113.703 18.9981 99.9906C19.3801 91.9154 20.1649 86.9291 16.9981 80.9906C13.781 74.9818 5.71189 70.0025 4.9981 62.9906C4.16368 54.7649 7.2476 49.521 12.9981 42.9906C18.7687 36.4502 25.2831 30.3535 29.9981 22.9906C32.1194 19.6903 33.1329 15.5586 35.9981 12.9906C45.0193 4.90533 55.7934 2.52286 67.9981 4.99057C75.3571 6.48523 84.1879 11.1392 87.9981 17.9906C93.4571 27.7912 85.0831 39.057 102.998 36.9906C113.447 35.7868 122.391 38.0052 129.998 43.9906C152.216 61.4751 147.238 92.9379 116.998 96.9906C114.254 97.3517 114.254 100.453 114.998 102.991C118.426 114.767 122.001 123.725 113.998 134.991C102.869 150.67 82.7954 153.616 71.9981 135.991C70.9727 134.305 67.9946 119.092 62.9981 124.991C54.1512 135.423 40.5494 140.34 28.9981 130.991ZM54.9981 97.9906C62.2499 103.561 70.5547 106.148 79.9981 104.991C93.5801 103.335 102.044 88.978 100.998 76.9906C99.842 63.6289 91.2584 53.01 77.9981 49.9906C54.604 44.674 34.7105 82.422 54.9981 97.9906Z" fill="#0077C0" opacity="0.65"/>
<path d="M57.9957 97.9829C37.8493 82.5124 57.7644 45.6998 80.9957 50.9829C94.1638 53.9834 102.848 63.7054 103.996 76.9829C105.034 88.8949 96.4833 103.338 82.9957 104.983C73.618 106.133 65.1971 103.519 57.9957 97.9829Z" fill="#0077C0" opacity="0.65"/>
</svg>
