<?xml version="1.0" encoding="utf-8"?>
<!-- Generator: Adobe Illustrator 24.0.3, SVG Export Plug-In . SVG Version: 6.00 Build 0)  -->
<svg version="1.1" id="Layer_1" xmlns="http://www.w3.org/2000/svg" xmlns:xlink="http://www.w3.org/1999/xlink" x="0px" y="0px"
	 viewBox="0 0 720 551" style="enable-background:new 0 0 720 551;" xml:space="preserve">
<style type="text/css">
	.purple{fill-rule:evenodd;clip-rule:evenodd;fill:#1B1C26;}
	.grey2{fill-rule:evenodd;clip-rule:evenodd;fill:#CCCDC9;}
	.grey{fill:#CCCDC9;}
</style>
<path class="purple" d="M688.2,4.6h-584H86H73.2H55H34.1C18.2,4.6,5.3,17.5,5.3,33.4v485.7c0,15.9,12.9,28.8,28.8,28.8h654.1
	c15.9,0,28.8-12.9,28.8-28.8V33.4C717,17.5,704.1,4.6,688.2,4.6z M698.6,519.9c0,5.8-4.7,10.4-10.4,10.4H34.1
	c-5.8,0-10.4-4.7-10.4-10.4V34.2c0-5.8,4.7-10.4,10.4-10.4h654.1c5.7,0,10.4,4.7,10.4,10.4V519.9z"/>
<path class="grey2" d="M688.2,1.7H106.5c-0.3-1-1.2-1.7-2.2-1.7H86c-1.1,0-2,0.7-2.2,1.7h-8.3c-0.3-1-1.2-1.7-2.2-1.7H55
	c-1.1,0-2,0.7-2.2,1.7H34.1C16.6,1.7,2.4,16,2.4,33.5l0,0l0,0l0,0c-1.3,0-2.4,1.1-2.4,2.4v26.3c0,1.3,1.1,2.4,2.4,2.4l0,0l0,0v454.7
	c0,17.5,14.3,31.8,31.8,31.8h654.1c17.5,0,31.8-14.3,31.8-31.8V33.5C720,16,705.7,1.7,688.2,1.7z M717,519.2
	c0,15.9-12.9,28.8-28.8,28.8H34.1c-15.9,0-28.8-12.9-28.8-28.8V33.5c0-15.9,12.9-28.8,28.8-28.8H55h18.2H86h18.2h584
	c15.9,0,28.8,12.9,28.8,28.8V519.2z"/>
<path class="grey2" d="M688.2,23.1H34.1c-5.7,0-10.4,4.6-10.4,10.4v485.7c0,5.7,4.6,10.4,10.4,10.4h654.1c5.7,0,10.4-4.6,10.4-10.4
	V33.5C698.6,27.8,693.9,23.1,688.2,23.1z M695.6,519.2c0,4.1-3.3,7.4-7.4,7.4H34.1c-4.1,0-7.4-3.3-7.4-7.4V33.5
	c0-4.1,3.3-7.4,7.4-7.4h654.1c4.1,0,7.4,3.3,7.4,7.4V519.2z"/>
<path class="grey2" d="M447,520.9H274c-1.1,0-2.1-0.9-2.1-2.1l0,0c0-1.1,0.9-2.1,2.1-2.1h173c1.1,0,2.1,0.9,2.1,2.1l0,0
	C449.1,520,448.2,520.9,447,520.9z"/>
<circle id="SVGID_5_" class="grey" cx="14.5" cy="278.1" r="2.6"/>
</svg>
