<svg xmlns="http://www.w3.org/2000/svg" xmlns:xlink="http://www.w3.org/1999/xlink" viewBox="0 0 422.45 92.39"><defs><style>.cls-1{fill:#0b77be;}.cls-2{fill:url(#linear-gradient);}.cls-3{fill:url(#linear-gradient-2);}.cls-4{fill:url(#linear-gradient-3);}</style><linearGradient id="linear-gradient" x1="74.63" y1="92.39" x2="74.63" y2="56.23" gradientUnits="userSpaceOnUse"><stop offset="0.02" stop-color="#0b77be"/><stop offset="0.51" stop-color="#0b77be"/><stop offset="1" stop-color="#0b77be"/></linearGradient><linearGradient id="linear-gradient-2" x1="7.67" y1="20.7" x2="65.96" y2="60.01" xlink:href="#linear-gradient"/><linearGradient id="linear-gradient-3" x1="63.35" y1="36.72" x2="61.43" y2="73.29" xlink:href="#linear-gradient"/></defs><g id="Layer_2" data-name="Layer 2"><g id="Layer_1-2" data-name="Layer 1"><path class="cls-1" d="M131.51,29.26h8.14V44.88a23.11,23.11,0,0,1-7.26,3.63,28.31,28.31,0,0,1-8.31,1.26,22.58,22.58,0,0,1-10.78-2.55,19,19,0,0,1-7.5-7.1,19.49,19.49,0,0,1-2.73-10.26,19.48,19.48,0,0,1,2.73-10.25,18.9,18.9,0,0,1,7.56-7.1A23,23,0,0,1,124.25,10a23.76,23.76,0,0,1,9.18,1.71,18.27,18.27,0,0,1,6.93,4.95l-5.72,5.28a13.22,13.22,0,0,0-9.95-4.35,13.68,13.68,0,0,0-6.55,1.54,11.09,11.09,0,0,0-4.45,4.35,12.7,12.7,0,0,0-1.6,6.43,12.59,12.59,0,0,0,1.6,6.38,11.35,11.35,0,0,0,4.42,4.38,13.21,13.21,0,0,0,6.47,1.56,14.48,14.48,0,0,0,6.93-1.65Z"/><path class="cls-1" d="M158,20.18a15.47,15.47,0,0,1,6-1.1V27c-.95-.07-1.59-.11-1.92-.11A7.87,7.87,0,0,0,156.31,29q-2.09,2.05-2.09,6.18v14h-8.58V19.52h8.2v3.91A9.56,9.56,0,0,1,158,20.18Z"/><path class="cls-1" d="M196,36.74H173.64a6.92,6.92,0,0,0,2.86,4.34,9.41,9.41,0,0,0,5.61,1.6,11.37,11.37,0,0,0,4.1-.69,9.86,9.86,0,0,0,3.32-2.17l4.57,5q-4.18,4.78-12.21,4.78A19.36,19.36,0,0,1,173,47.6a14.39,14.39,0,0,1-5.94-5.42A15,15,0,0,1,165,34.32a15.08,15.08,0,0,1,2.07-7.84A14.38,14.38,0,0,1,172.73,21,17.5,17.5,0,0,1,188.65,21a13.67,13.67,0,0,1,5.53,5.37,16,16,0,0,1,2,8.11C196.19,34.54,196.13,35.31,196,36.74ZM176,27.22a7,7,0,0,0-2.42,4.51H188.1a7.08,7.08,0,0,0-2.42-4.48,7.22,7.22,0,0,0-4.84-1.68A7.38,7.38,0,0,0,176,27.22Z"/><path class="cls-1" d="M221.93,22.36q3.67,3.27,3.68,9.87V49.11h-8V45.43q-2.42,4.13-9,4.12a14,14,0,0,1-5.91-1.15,8.78,8.78,0,0,1-3.82-3.19,8.32,8.32,0,0,1-1.32-4.62,7.71,7.71,0,0,1,3.1-6.49q3.12-2.37,9.6-2.37H217a5.47,5.47,0,0,0-1.7-4.31,7.51,7.51,0,0,0-5.12-1.52,14.78,14.78,0,0,0-4.64.75,12.14,12.14,0,0,0-3.88,2l-3.08-6a18.44,18.44,0,0,1,5.8-2.64,26.14,26.14,0,0,1,7-.94Q218.24,19.08,221.93,22.36Zm-7.32,20.4a5.54,5.54,0,0,0,2.42-3v-3h-5.88q-5.28,0-5.28,3.46a3.1,3.1,0,0,0,1.29,2.62,5.82,5.82,0,0,0,3.55,1A7.44,7.44,0,0,0,214.61,42.76Z"/><path class="cls-1" d="M250.8,47.68a8.65,8.65,0,0,1-3.11,1.41,15.72,15.72,0,0,1-3.87.46c-3.52,0-6.24-.89-8.17-2.69s-2.89-4.44-2.89-7.92V26.78H228.2v-6.6h4.56V13h8.58v7.2h7.37v6.6h-7.37v12a4,4,0,0,0,1,2.89,3.54,3.54,0,0,0,2.72,1,5.47,5.47,0,0,0,3.46-1.1Z"/><path class="cls-1" d="M266.9,10.61h8.91V41.85h19.31v7.26H266.9Z"/><path class="cls-1" d="M322.3,22.36Q326,25.63,326,32.23V49.11h-8V45.43c-1.62,2.75-4.62,4.12-9,4.12A14,14,0,0,1,303,48.4a8.78,8.78,0,0,1-3.82-3.19,8.32,8.32,0,0,1-1.32-4.62A7.72,7.72,0,0,1,301,34.1q3.11-2.37,9.6-2.37h6.82a5.45,5.45,0,0,0-1.71-4.31,7.5,7.5,0,0,0-5.11-1.52,14.79,14.79,0,0,0-4.65.75,12.25,12.25,0,0,0-3.88,2l-3.08-6a18.44,18.44,0,0,1,5.8-2.64,26.2,26.2,0,0,1,7-.94Q318.61,19.08,322.3,22.36ZM315,42.76a5.62,5.62,0,0,0,2.42-3v-3h-5.89q-5.28,0-5.28,3.46a3.1,3.1,0,0,0,1.29,2.62,5.84,5.84,0,0,0,3.55,1A7.48,7.48,0,0,0,315,42.76Z"/><path class="cls-1" d="M344.79,37.51l-4.12,4.07v7.53h-8.58V8.3h8.58V31.4l12.54-11.88h10.23L351.12,32.06l13.42,17h-10.4Z"/><path class="cls-1" d="M394.29,36.74H371.91a6.92,6.92,0,0,0,2.86,4.34,9.41,9.41,0,0,0,5.61,1.6,11.37,11.37,0,0,0,4.1-.69,9.86,9.86,0,0,0,3.32-2.17l4.57,5q-4.19,4.78-12.21,4.78a19.36,19.36,0,0,1-8.86-1.95,14.39,14.39,0,0,1-5.94-5.42,15,15,0,0,1-2.09-7.86,15.08,15.08,0,0,1,2.07-7.84A14.38,14.38,0,0,1,371,21,17.52,17.52,0,0,1,386.93,21a13.71,13.71,0,0,1,5.52,5.37,16,16,0,0,1,2,8.11C394.46,34.54,394.4,35.31,394.29,36.74Zm-20.07-9.52a7,7,0,0,0-2.42,4.51h14.57A7.08,7.08,0,0,0,384,27.25a7.22,7.22,0,0,0-4.84-1.68A7.38,7.38,0,0,0,374.22,27.22Z"/><path class="cls-1" d="M401.28,48.65a18.79,18.79,0,0,1-5.61-2.29l2.86-6.16a17.7,17.7,0,0,0,4.78,2.07,20.14,20.14,0,0,0,5.5.79c3.63,0,5.45-.89,5.45-2.69a1.92,1.92,0,0,0-1.49-1.82,22.74,22.74,0,0,0-4.56-.93,44.16,44.16,0,0,1-6-1.27,9.23,9.23,0,0,1-4.09-2.53,7.17,7.17,0,0,1-1.74-5.17,8.1,8.1,0,0,1,1.63-5,10.47,10.47,0,0,1,4.73-3.39,20.34,20.34,0,0,1,7.34-1.21,28.68,28.68,0,0,1,6.24.69,17.33,17.33,0,0,1,5.14,1.9l-2.86,6.1a17.12,17.12,0,0,0-8.52-2.2,8.76,8.76,0,0,0-4.13.77,2.28,2.28,0,0,0-1.37,2,2,2,0,0,0,1.48,1.93,26.16,26.16,0,0,0,4.73,1,51.48,51.48,0,0,1,5.94,1.3,9,9,0,0,1,4,2.5,7.09,7.09,0,0,1,1.7,5.06A7.81,7.81,0,0,1,420.8,45,10.53,10.53,0,0,1,416,48.37a21.41,21.41,0,0,1-7.51,1.18A28.93,28.93,0,0,1,401.28,48.65Z"/><path class="cls-1" d="M154.28,62.66,147.6,82.47h-2.2l-5.8-16.89-5.83,16.89h-2.18l-6.68-19.81h2.15l5.72,17,5.91-17h1.95l5.83,17.12,5.8-17.12Z"/><path class="cls-1" d="M181.67,80.66v1.81h-14V62.66h13.58v1.81H169.76v7H180V73.3H169.76v7.36Z"/><path class="cls-1" d="M211.64,73.94a4.84,4.84,0,0,1,1.06,3.24,4.53,4.53,0,0,1-1.88,3.91,9.34,9.34,0,0,1-5.56,1.38h-9.11V62.66h8.55A8.65,8.65,0,0,1,209.83,64a4.37,4.37,0,0,1,1.82,3.76,4.69,4.69,0,0,1-.8,2.79,4.77,4.77,0,0,1-2.22,1.71A5.3,5.3,0,0,1,211.64,73.94Zm-13.39-9.55v7.18h6.31a6.3,6.3,0,0,0,3.7-.92,3.39,3.39,0,0,0,0-5.34,6.38,6.38,0,0,0-3.7-.92Zm11,15.45A3.16,3.16,0,0,0,210.61,77q0-3.7-5.38-3.71h-7v7.44h7A7.3,7.3,0,0,0,209.25,79.84Z"/><path class="cls-1" d="M244,62.66h8.06a11.8,11.8,0,0,1,5.55,1.26,9.16,9.16,0,0,1,3.73,3.51,10.58,10.58,0,0,1,0,10.27,9.16,9.16,0,0,1-3.73,3.51,11.8,11.8,0,0,1-5.55,1.26H244Zm7.95,18a9.62,9.62,0,0,0,4.56-1,7.48,7.48,0,0,0,3-2.85,8.73,8.73,0,0,0,0-8.41,7.42,7.42,0,0,0-3-2.85,9.62,9.62,0,0,0-4.56-1h-5.86V80.66Z"/><path class="cls-1" d="M291,80.66v1.81H277V62.66h13.58v1.81H279v7h10.25V73.3H279v7.36Z"/><path class="cls-1" d="M306.67,81.93a7.61,7.61,0,0,1-3.12-1.87l.82-1.61a7.75,7.75,0,0,0,2.85,1.74,10.54,10.54,0,0,0,3.68.66,6.75,6.75,0,0,0,4-1,3,3,0,0,0,1.33-2.53,2.53,2.53,0,0,0-.72-1.9,5,5,0,0,0-1.77-1.09,30,30,0,0,0-2.91-.83,31.29,31.29,0,0,1-3.57-1.09,5.8,5.8,0,0,1-2.28-1.6,4.27,4.27,0,0,1-.94-2.92,4.92,4.92,0,0,1,.79-2.73,5.44,5.44,0,0,1,2.43-2,9.94,9.94,0,0,1,4.07-.74,12,12,0,0,1,3.33.47,9.45,9.45,0,0,1,2.81,1.29l-.7,1.67a9.59,9.59,0,0,0-2.66-1.23,9.75,9.75,0,0,0-2.78-.41,6.37,6.37,0,0,0-3.91,1,3.11,3.11,0,0,0-1.32,2.59,2.59,2.59,0,0,0,.72,1.91,4.71,4.71,0,0,0,1.81,1.1c.73.26,1.71.53,2.93.84a27.59,27.59,0,0,1,3.52,1.06,5.72,5.72,0,0,1,2.28,1.58,4.22,4.22,0,0,1,.94,2.87,4.86,4.86,0,0,1-.81,2.73,5.4,5.4,0,0,1-2.48,2,10.16,10.16,0,0,1-4.1.73A12.78,12.78,0,0,1,306.67,81.93Z"/><path class="cls-1" d="M332.4,62.66h2.1V82.47h-2.1Z"/><path class="cls-1" d="M364.46,72.56h2v7.56A9.69,9.69,0,0,1,363.18,82a12.27,12.27,0,0,1-4,.65,11,11,0,0,1-5.34-1.3,9.69,9.69,0,0,1-3.74-3.61,10.49,10.49,0,0,1,0-10.33,9.62,9.62,0,0,1,3.74-3.61,11.05,11.05,0,0,1,5.37-1.3,11.61,11.61,0,0,1,4.16.72,8.36,8.36,0,0,1,3.2,2.14l-1.3,1.33a8.14,8.14,0,0,0-6-2.32A8.89,8.89,0,0,0,355,65.42a7.88,7.88,0,0,0-3,2.94,8.23,8.23,0,0,0-1.1,4.2,8.11,8.11,0,0,0,1.1,4.19,7.92,7.92,0,0,0,3,2.94,9.39,9.39,0,0,0,9.51-.45Z"/><path class="cls-1" d="M398.49,62.66V82.47h-1.72L384,66.4V82.47h-2.09V62.66h1.73l12.76,16.07V62.66Z"/><polygon class="cls-2" points="103.07 75.59 103.07 92.39 46.2 92.39 46.2 56.23 64.51 56.23 64.51 75.59 103.07 75.59"/><path class="cls-3" d="M64.51,3.79V36.17H46.2V16.8a29.38,29.38,0,0,0-2,58.7V92.35A46.2,46.2,0,0,1,46.2,0,45.69,45.69,0,0,1,64.51,3.79Z"/><path class="cls-4" d="M92.39,46.2c0,.36,0,.69,0,1,0,1.2-.1,2.35-.22,3.51s-.26,2.3-.45,3.43a45.82,45.82,0,0,1-2.57,9.07,44.34,44.34,0,0,1-5.76,10.29H66.55V67.36c.36-.31.69-.67,1-1a32.41,32.41,0,0,0,2.54-3.1,28.61,28.61,0,0,0,4.35-9.07H33.67v-16h58a13.86,13.86,0,0,1,.19,1.46c.07.5.14,1,.22,1.49.12,1,.19,2,.24,3C92.37,44.83,92.39,45.52,92.39,46.2Z"/></g></g></svg>