<svg width="318" height="222" viewBox="0 0 318 222" fill="none" xmlns="http://www.w3.org/2000/svg">
<g clip-path="url(#clip0_1_165)">
<path d="M2.00004 92.6354C7.46992 112.64 24.6601 128.775 45 132.635C55.7145 134.666 67.4622 133.359 77 138.635C90.1052 145.893 94.4953 162.046 98 176.635C101.505 191.213 106.619 207.905 120 214.635C130.664 220.013 143.76 217.671 155 213.635C166.228 209.599 177.071 204.099 189 203.635C212.306 202.72 232.681 221.034 256 221.635C269.305 221.974 283.162 216.622 293 207.635C302.838 198.648 308.92 186.333 313 173.635C327.082 129.866 308.858 79.6952 275 48.6354C241.142 17.5757 194.849 3.16735 149 0.635442C123.228 -0.780924 96.5081 1.57594 72 9.63544C35.7637 21.5429 -10.4417 47.1112 2.00004 92.6354Z" fill="#0077C0" opacity="0.65"/>
</g>
<defs>
<clipPath id="clip0_1_165">
<rect width="318" height="221" fill="white" transform="translate(0 0.635437)"/>
</clipPath>
</defs>
</svg>
