<svg width="411" height="316" viewBox="0 0 411 316" fill="none" xmlns="http://www.w3.org/2000/svg">
<path d="M262.722 273.137C302.218 259.749 310.946 233.945 314.945 225.844C322.328 210.888 324.852 193.405 318.664 177.936C312.487 162.475 296.471 150.033 279.753 150.827C269.445 151.317 259.469 156.591 249.682 159.868C239.895 163.145 228.518 163.735 220.144 157.741C207.483 148.688 208.384 128.903 195.906 119.602C184.799 111.313 169.442 115.223 156.719 120.775C143.997 126.327 128.825 132.192 116.936 125.054C107.678 119.501 104.308 108.329 103.202 97.6241C102.096 86.9189 102.056 76.0068 97.9935 66.035C91.564 50.25 73.5187 40.3485 56.5032 42.2945C39.4877 44.2405 25.2139 56.5364 19.1551 72.4784C13.0881 88.4214 -22.1942 127.34 30.4706 203.126C83.1354 278.912 223.226 286.525 262.722 273.137Z" fill="#0077C0" opacity="0.65"/>
<path d="M11.0066 125.009C10.9897 100.21 29.946 76.0845 54.2452 70.8401C78.5445 65.5956 105.648 79.3983 115.888 101.99C120.528 112.221 121.931 123.512 126.184 133.912C130.438 144.311 138.929 154.239 150.164 154.936C164.815 155.844 175.153 141.393 187.707 133.805C198.892 127.04 213.34 126.346 225.639 130.781C237.938 135.216 248.139 145.15 252.392 157.489C255.695 167.082 255.411 177.859 262.161 185.446C269.09 193.241 281.098 194.583 291.367 192.661C301.635 190.738 311.265 186.013 321.438 183.62C344.098 178.293 369.501 185.177 386.323 201.224C403.145 217.263 411.226 242.241 406.916 265.068" stroke="#222544" stroke-width="1.2984" stroke-miterlimit="10" stroke-linecap="round" stroke-linejoin="round" opacity="0.65"/>
</svg>
